<?xml version="1.0" encoding="UTF-8"?>
<svg xmlns="http://www.w3.org/2000/svg" width="32" height="32" viewBox="0 0 32 32">
  <defs>
    <linearGradient id="bg" x1="0%" y1="0%" x2="100%" y2="100%">
      <stop offset="0%" style="stop-color:#93c5fd"/>
      <stop offset="100%" style="stop-color:#60a5fa"/>
    </linearGradient>
  </defs>
  <!-- Background circle -->
  <circle cx="16" cy="16" r="16" fill="url(#bg)"/>
  
  <!-- Clouds -->
  <path d="M6 14a4 4 0 0 1 4-4c.5-2.5 2.7-4 5.2-4 2.8 0 5 2 5.3 4.5a3.5 3.5 0 0 1-.5 7H8a4 4 0 0 1-2-7.5z" fill="white" opacity="0.3"/>
  <path d="M14 20a3 3 0 0 1 3-3c.4-1.9 2-3 3.9-3 2.1 0 3.8 1.5 4 3.4a2.6 2.6 0 0 1-.4 5.2H15.5a3 3 0 0 1-1.5-5.6z" fill="white" opacity="0.4"/>
  
  <!-- Letter R -->
  <text x="16" y="20" font-family="Arial, sans-serif" font-size="16" font-weight="bold" fill="#dc2626" text-anchor="middle">R</text>
</svg> 